<?xml version="1.0" encoding="UTF-8" standalone="no"?>
<svg
   xmlns:dc="http://purl.org/dc/elements/1.1/"
   xmlns:cc="http://creativecommons.org/ns#"
   xmlns:rdf="http://www.w3.org/1999/02/22-rdf-syntax-ns#"
   xmlns:svg="http://www.w3.org/2000/svg"
   xmlns="http://www.w3.org/2000/svg"
   xmlns:sodipodi="http://sodipodi.sourceforge.net/DTD/sodipodi-0.dtd"
   xmlns:inkscape="http://www.inkscape.org/namespaces/inkscape"
   width="100%"
   height="100%"
   viewBox="0 0 1772 1694"
   version="1.1"
   xml:space="preserve"
   style="fill-rule:evenodd;clip-rule:evenodd;stroke-linejoin:round;stroke-miterlimit:2;"
   id="svg945"
   sodipodi:docname="logo-ization--background.svg"
   inkscape:version="0.92.3 (2405546, 2018-03-11)"><metadata
   id="metadata951"><rdf:RDF><cc:Work
       rdf:about=""><dc:format>image/svg+xml</dc:format><dc:type
         rdf:resource="http://purl.org/dc/dcmitype/StillImage" /><dc:title></dc:title></cc:Work></rdf:RDF></metadata><defs
   id="defs949" /><sodipodi:namedview
   pagecolor="#ffffff"
   bordercolor="#666666"
   borderopacity="1"
   objecttolerance="10"
   gridtolerance="10"
   guidetolerance="10"
   inkscape:pageopacity="0"
   inkscape:pageshadow="2"
   inkscape:window-width="1920"
   inkscape:window-height="1137"
   id="namedview947"
   showgrid="false"
   inkscape:zoom="0.40406102"
   inkscape:cx="336.94469"
   inkscape:cy="1010.731"
   inkscape:window-x="1912"
   inkscape:window-y="-8"
   inkscape:window-maximized="1"
   inkscape:current-layer="g934" />
    <g
   transform="matrix(1,0,0,1,-8085,-6139.98)"
   id="g943">
        <g
   id="ization"
   transform="matrix(0.504889,0,0,0.682753,-434.557,6139.98)">
            <rect
   x="16874.1"
   y="0"
   width="3507.87"
   height="2480.32"
   style="fill:none;"
   id="rect884" />
            <g
   id="g940">
                <g
   transform="matrix(-1.98063,0,0,1.46466,21262.1,-291.182)"
   id="g888">
                    <path
   d="M1040.25,1025.58L916.238,1190.93L916.238,740.405C916.238,702.235 947.227,671.246 985.397,671.246L1319.52,671.246C1357.69,671.246 1388.68,702.235 1388.68,740.405L1388.68,956.419C1388.68,994.588 1357.69,1025.58 1319.52,1025.58L1040.25,1025.58Z"
   style="fill:#f0f0f0;fill-opacity:1"
   id="path886" />
                </g>
                <g
   transform="matrix(-1.98063,0,0,1.46466,21262.1,-291.182)"
   id="g892">
                    <path
   d="M1040.25,1025.58L1025.4,1045.39L946.3,1025.58L1040.25,1025.58Z"
   style="fill:#e4e4e4;fill-opacity:1"
   id="path890" />
                </g>
                <g
   transform="matrix(654.92,0,0,484.307,18773.5,1115.35)"
   id="g896">
                    <path
   d="M0.068,-0.067C0.068,-0.025 0.1,0.007 0.142,0.007C0.185,0.007 0.217,-0.025 0.217,-0.067L0.217,-0.276L0.281,-0.276L0.424,-0.032C0.435,-0.013 0.46,0.007 0.488,0.007C0.529,0.007 0.563,-0.022 0.563,-0.065C0.563,-0.08 0.554,-0.099 0.547,-0.11L0.406,-0.344L0.531,-0.57C0.538,-0.582 0.544,-0.6 0.544,-0.615C0.544,-0.658 0.512,-0.688 0.471,-0.688C0.444,-0.688 0.417,-0.669 0.407,-0.649L0.279,-0.403L0.217,-0.403L0.217,-0.614C0.217,-0.656 0.185,-0.688 0.142,-0.688C0.1,-0.688 0.068,-0.656 0.068,-0.614L0.068,-0.067Z"
   style="fill:white;fill-rule:nonzero;"
   id="path894" />
                </g>
                
                <g
   transform="matrix(1.98063,0,0,1.46466,15995.1,-31.6951)"
   id="g930">
                    <path
   d="M1040.25,1025.58L916.238,1190.93L916.238,740.405C916.238,702.235 947.227,671.246 985.397,671.246L1319.52,671.246C1357.69,671.246 1388.68,702.235 1388.68,740.405L1388.68,956.419C1388.68,994.588 1357.69,1025.58 1319.52,1025.58L1040.25,1025.58Z"
   style="fill:#f5f5f5;fill-opacity:1"
   id="path928" />
                </g>
                <g
   transform="matrix(1.98063,0,0,1.46466,15995.1,-31.6951)"
   id="g934">
                    <path
   d="M1040.25,1025.58L1025.4,1045.39L946.3,1025.58L1040.25,1025.58Z"
   style="fill:#e9e9e9;fill-opacity:1"
   id="path932" />
                </g>
                <g
   transform="matrix(434.015,0,0,320.949,18057.1,1308.72)"
   id="g938">
                    <path
   d="M0.601,-0.639C0.604,-0.614 0.597,-0.597 0.582,-0.589C0.566,-0.58 0.547,-0.584 0.525,-0.599C0.507,-0.611 0.488,-0.625 0.469,-0.642C0.449,-0.658 0.43,-0.676 0.412,-0.696C0.383,-0.726 0.393,-0.74 0.44,-0.738C0.472,-0.737 0.498,-0.734 0.518,-0.73C0.538,-0.726 0.554,-0.72 0.566,-0.713C0.577,-0.705 0.586,-0.695 0.591,-0.683C0.596,-0.671 0.599,-0.656 0.601,-0.639ZM0.893,-0.585C0.909,-0.576 0.92,-0.567 0.926,-0.558C0.932,-0.549 0.933,-0.541 0.929,-0.535C0.924,-0.528 0.914,-0.523 0.899,-0.52C0.883,-0.516 0.861,-0.515 0.833,-0.517C0.814,-0.518 0.795,-0.519 0.777,-0.52C0.759,-0.521 0.74,-0.521 0.72,-0.521C0.699,-0.52 0.677,-0.519 0.652,-0.518C0.627,-0.517 0.599,-0.515 0.566,-0.512C0.48,-0.505 0.409,-0.497 0.354,-0.49C0.299,-0.483 0.258,-0.475 0.232,-0.468C0.218,-0.464 0.206,-0.461 0.197,-0.46C0.188,-0.458 0.179,-0.457 0.172,-0.458C0.164,-0.459 0.157,-0.46 0.15,-0.464C0.142,-0.467 0.134,-0.471 0.125,-0.476C0.097,-0.493 0.084,-0.506 0.086,-0.515C0.087,-0.524 0.101,-0.528 0.127,-0.528C0.14,-0.528 0.161,-0.529 0.19,-0.532C0.219,-0.534 0.252,-0.537 0.289,-0.541C0.326,-0.544 0.365,-0.548 0.407,-0.553C0.448,-0.557 0.489,-0.562 0.528,-0.567C0.567,-0.572 0.604,-0.577 0.637,-0.582C0.67,-0.587 0.697,-0.591 0.718,-0.595C0.745,-0.6 0.768,-0.604 0.785,-0.607C0.802,-0.61 0.816,-0.611 0.828,-0.61C0.839,-0.608 0.85,-0.606 0.859,-0.602C0.868,-0.598 0.88,-0.592 0.893,-0.585ZM0.654,-0.433C0.675,-0.423 0.684,-0.413 0.68,-0.402C0.676,-0.391 0.657,-0.384 0.622,-0.38C0.608,-0.379 0.593,-0.377 0.576,-0.375C0.559,-0.373 0.542,-0.371 0.525,-0.369C0.507,-0.366 0.49,-0.364 0.474,-0.362C0.457,-0.359 0.443,-0.357 0.43,-0.355C0.415,-0.352 0.403,-0.352 0.392,-0.353C0.381,-0.354 0.368,-0.359 0.353,-0.366C0.327,-0.377 0.316,-0.387 0.319,-0.396C0.322,-0.404 0.339,-0.409 0.37,-0.41C0.405,-0.412 0.437,-0.415 0.464,-0.42C0.491,-0.424 0.52,-0.431 0.55,-0.44C0.561,-0.443 0.57,-0.446 0.579,-0.448C0.588,-0.449 0.596,-0.45 0.604,-0.449C0.611,-0.448 0.619,-0.447 0.627,-0.444C0.635,-0.441 0.644,-0.438 0.654,-0.433ZM0.644,-0.309C0.666,-0.297 0.675,-0.285 0.672,-0.274C0.669,-0.263 0.647,-0.255 0.608,-0.252C0.582,-0.25 0.554,-0.247 0.523,-0.244C0.492,-0.24 0.456,-0.235 0.416,-0.229C0.401,-0.226 0.388,-0.226 0.377,-0.228C0.366,-0.229 0.352,-0.234 0.337,-0.242C0.296,-0.263 0.3,-0.276 0.351,-0.279C0.365,-0.28 0.381,-0.281 0.398,-0.283C0.415,-0.285 0.431,-0.288 0.448,-0.291C0.464,-0.294 0.479,-0.297 0.493,-0.3C0.507,-0.303 0.518,-0.306 0.526,-0.309C0.546,-0.317 0.567,-0.321 0.589,-0.321C0.611,-0.321 0.629,-0.317 0.644,-0.309ZM0.744,-0.089C0.727,-0.081 0.712,-0.071 0.701,-0.061C0.69,-0.049 0.68,-0.035 0.671,-0.017C0.68,-0.009 0.686,-0.001 0.69,0.008C0.694,0.016 0.695,0.023 0.694,0.03C0.693,0.037 0.688,0.042 0.68,0.047C0.672,0.051 0.661,0.053 0.646,0.053C0.608,0.054 0.567,0.055 0.524,0.057C0.48,0.059 0.438,0.062 0.398,0.065C0.395,0.085 0.391,0.1 0.385,0.111C0.379,0.121 0.372,0.126 0.365,0.125C0.358,0.124 0.35,0.118 0.343,0.107C0.336,0.095 0.33,0.077 0.325,0.054C0.315,0.005 0.306,-0.033 0.297,-0.06C0.288,-0.086 0.279,-0.106 0.268,-0.12C0.251,-0.141 0.249,-0.156 0.263,-0.164C0.277,-0.172 0.308,-0.169 0.356,-0.156C0.381,-0.157 0.405,-0.158 0.429,-0.16C0.453,-0.162 0.476,-0.165 0.498,-0.168C0.519,-0.171 0.539,-0.175 0.557,-0.18C0.574,-0.184 0.589,-0.189 0.601,-0.194C0.61,-0.198 0.618,-0.201 0.626,-0.202C0.633,-0.203 0.641,-0.203 0.649,-0.202C0.657,-0.201 0.666,-0.198 0.675,-0.193C0.684,-0.188 0.696,-0.182 0.709,-0.173C0.728,-0.161 0.742,-0.151 0.752,-0.142C0.762,-0.133 0.768,-0.126 0.77,-0.12C0.772,-0.113 0.771,-0.108 0.766,-0.103C0.761,-0.098 0.754,-0.094 0.744,-0.089ZM0.604,-0.106C0.605,-0.113 0.604,-0.118 0.6,-0.12C0.595,-0.122 0.587,-0.122 0.575,-0.121C0.551,-0.12 0.522,-0.117 0.489,-0.114C0.456,-0.111 0.421,-0.107 0.385,-0.102C0.388,-0.083 0.391,-0.064 0.393,-0.047C0.395,-0.029 0.397,-0.012 0.398,0.003C0.442,0 0.479,-0.003 0.509,-0.006C0.539,-0.009 0.561,-0.012 0.575,-0.015C0.578,-0.016 0.58,-0.017 0.582,-0.02C0.584,-0.022 0.586,-0.026 0.589,-0.033C0.591,-0.039 0.593,-0.048 0.596,-0.06C0.598,-0.071 0.601,-0.087 0.604,-0.106Z"
   style="fill:white;fill-rule:nonzero;"
   id="path936" />
                </g>
            </g>
        </g>
    </g>
</svg>