<?xml version="1.0" encoding="UTF-8" standalone="no"?>
<!DOCTYPE svg PUBLIC "-//W3C//DTD SVG 1.1//EN" "http://www.w3.org/Graphics/SVG/1.1/DTD/svg11.dtd">
<svg width="100%" height="100%" viewBox="300 300 1172 1094" version="1.1" xmlns="http://www.w3.org/2000/svg" xmlns:xlink="http://www.w3.org/1999/xlink" xml:space="preserve" xmlns:serif="http://www.serif.com/" style="fill-rule:evenodd;clip-rule:evenodd;stroke-linejoin:round;stroke-miterlimit:2;">
    <g transform="matrix(1,0,0,1,-10531.8,-6139.98)">
        <g id="ization--negative--white" transform="matrix(0.504889,0,0,0.682753,2012.26,6139.98)">
            <rect x="16874.1" y="0" width="3507.87" height="2480.32" style="fill:none;"/>
            <g transform="matrix(1.98063,0,0,1.46466,15271.1,-561.88)">
                <g transform="matrix(4.16818,0,0,4.16818,-8087.31,-3035.4)">
                    <g transform="matrix(50,0,0,50,2275.8,1112.67)">
                        <path d="M0.033,-0.061C0.033,-0.027 0.059,0 0.093,0L0.368,0C0.402,0 0.428,-0.027 0.428,-0.061C0.428,-0.095 0.402,-0.122 0.368,-0.122L0.305,-0.122L0.305,-0.433C0.305,-0.467 0.279,-0.494 0.245,-0.494L0.095,-0.494C0.061,-0.494 0.035,-0.466 0.035,-0.432C0.035,-0.398 0.061,-0.372 0.095,-0.372L0.157,-0.372L0.157,-0.122L0.093,-0.122C0.059,-0.122 0.033,-0.095 0.033,-0.061ZM0.207,-0.559C0.253,-0.559 0.289,-0.595 0.289,-0.641C0.289,-0.687 0.253,-0.723 0.207,-0.723C0.161,-0.723 0.125,-0.687 0.125,-0.641C0.125,-0.595 0.161,-0.559 0.207,-0.559Z" style="fill:white;fill-rule:nonzero;"/>
                    </g>
                    <g transform="matrix(50,0,0,50,2297.65,1112.67)">
                        <path d="M0.036,-0.075C0.036,-0.024 0.08,0 0.123,0L0.395,0C0.429,0 0.455,-0.027 0.455,-0.061C0.455,-0.095 0.429,-0.122 0.395,-0.122L0.234,-0.122L0.425,-0.34C0.446,-0.363 0.453,-0.39 0.453,-0.413C0.453,-0.459 0.415,-0.494 0.363,-0.494L0.103,-0.494C0.069,-0.494 0.043,-0.467 0.043,-0.433C0.043,-0.399 0.069,-0.372 0.103,-0.372L0.269,-0.372L0.067,-0.146C0.043,-0.12 0.036,-0.095 0.036,-0.075Z" style="fill:white;fill-rule:nonzero;"/>
                    </g>
                    <g transform="matrix(50,0,0,50,2322.35,1112.67)">
                        <path d="M0.315,-0.145C0.29,-0.124 0.262,-0.111 0.232,-0.111C0.198,-0.111 0.175,-0.127 0.175,-0.155C0.175,-0.183 0.199,-0.197 0.243,-0.197L0.315,-0.197L0.315,-0.145ZM0.315,-0.296L0.237,-0.296C0.109,-0.296 0.031,-0.241 0.031,-0.144C0.031,-0.059 0.091,0.01 0.192,0.01C0.243,0.01 0.294,-0.008 0.338,-0.055L0.343,-0.037C0.348,-0.019 0.368,0.007 0.409,0.007C0.454,0.007 0.476,-0.025 0.476,-0.061C0.476,-0.088 0.463,-0.114 0.463,-0.17L0.463,-0.315C0.463,-0.384 0.444,-0.504 0.255,-0.504C0.201,-0.504 0.135,-0.494 0.099,-0.474C0.072,-0.459 0.065,-0.441 0.065,-0.423C0.065,-0.393 0.085,-0.364 0.125,-0.364C0.145,-0.364 0.172,-0.372 0.193,-0.377C0.213,-0.382 0.229,-0.383 0.24,-0.383C0.305,-0.383 0.315,-0.349 0.315,-0.316L0.315,-0.296Z" style="fill:white;fill-rule:nonzero;"/>
                    </g>
                    <g transform="matrix(50,0,0,50,2348.6,1112.67)">
                        <path d="M0.115,-0.372L0.115,-0.173C0.115,-0.085 0.166,0.01 0.282,0.01C0.309,0.01 0.356,0.005 0.391,-0.018C0.414,-0.033 0.425,-0.052 0.425,-0.075C0.425,-0.112 0.398,-0.132 0.368,-0.132C0.341,-0.132 0.333,-0.115 0.306,-0.115C0.275,-0.115 0.263,-0.139 0.263,-0.174L0.263,-0.372L0.365,-0.372C0.399,-0.372 0.425,-0.398 0.425,-0.432C0.425,-0.466 0.399,-0.494 0.365,-0.494L0.263,-0.494L0.263,-0.589C0.263,-0.631 0.231,-0.663 0.189,-0.663C0.147,-0.663 0.115,-0.631 0.115,-0.589L0.115,-0.494L0.071,-0.494C0.037,-0.494 0.011,-0.466 0.011,-0.432C0.011,-0.398 0.037,-0.372 0.071,-0.372L0.115,-0.372Z" style="fill:white;fill-rule:nonzero;"/>
                    </g>
                    <g transform="matrix(50,0,0,50,2371.1,1112.67)">
                        <path d="M0.033,-0.061C0.033,-0.027 0.059,0 0.093,0L0.368,0C0.402,0 0.428,-0.027 0.428,-0.061C0.428,-0.095 0.402,-0.122 0.368,-0.122L0.305,-0.122L0.305,-0.433C0.305,-0.467 0.279,-0.494 0.245,-0.494L0.095,-0.494C0.061,-0.494 0.035,-0.466 0.035,-0.432C0.035,-0.398 0.061,-0.372 0.095,-0.372L0.157,-0.372L0.157,-0.122L0.093,-0.122C0.059,-0.122 0.033,-0.095 0.033,-0.061ZM0.207,-0.559C0.253,-0.559 0.289,-0.595 0.289,-0.641C0.289,-0.687 0.253,-0.723 0.207,-0.723C0.161,-0.723 0.125,-0.687 0.125,-0.641C0.125,-0.595 0.161,-0.559 0.207,-0.559Z" style="fill:white;fill-rule:nonzero;"/>
                    </g>
                    <g transform="matrix(50,0,0,50,2392.65,1112.67)">
                        <path d="M0.04,-0.246C0.04,-0.105 0.124,0.01 0.279,0.01C0.434,0.01 0.517,-0.105 0.517,-0.246C0.517,-0.389 0.432,-0.504 0.279,-0.504C0.126,-0.504 0.04,-0.389 0.04,-0.246ZM0.279,-0.111C0.228,-0.111 0.189,-0.157 0.189,-0.246C0.189,-0.337 0.228,-0.383 0.279,-0.383C0.33,-0.383 0.369,-0.337 0.369,-0.246C0.369,-0.157 0.33,-0.111 0.279,-0.111Z" style="fill:white;fill-rule:nonzero;"/>
                    </g>
                    <g transform="matrix(50,0,0,50,2420.5,1112.67)">
                        <path d="M0.067,-0.067C0.067,-0.025 0.099,0.007 0.141,0.007C0.183,0.007 0.215,-0.025 0.215,-0.067L0.215,-0.349C0.237,-0.368 0.269,-0.383 0.294,-0.383C0.333,-0.383 0.363,-0.373 0.363,-0.311L0.363,-0.067C0.363,-0.025 0.394,0.007 0.437,0.007C0.479,0.007 0.511,-0.025 0.511,-0.067L0.511,-0.311C0.511,-0.444 0.445,-0.504 0.328,-0.504C0.292,-0.504 0.236,-0.486 0.192,-0.439L0.187,-0.456C0.179,-0.482 0.16,-0.5 0.12,-0.5C0.074,-0.5 0.054,-0.467 0.054,-0.429C0.054,-0.402 0.067,-0.379 0.067,-0.323L0.067,-0.067Z" style="fill:white;fill-rule:nonzero;"/>
                    </g>
                </g>
                <g transform="matrix(1,0,0,1,0,-5407.22)">
                    <path d="M1688.34,6440.66C1724.86,6442.52 1753.94,6472.75 1753.94,6509.73L1753.94,6725.74C1753.94,6763.91 1722.95,6794.9 1684.78,6794.9L1311.56,6794.9L1390.65,6814.71L1281.5,6960.25L1281.5,6509.73C1281.5,6471.56 1312.49,6440.57 1350.65,6440.57L1684.78,6440.57L1688.34,6440.66Z" style="fill:white;"/>
                </g>
                <g transform="matrix(1,0,0,1,0,-5407.22)">
                    <path d="M1688.34,6440.66C1724.86,6442.52 1753.94,6472.75 1753.94,6509.73L1753.94,6725.74C1753.94,6763.91 1722.95,6794.9 1684.78,6794.9L1311.56,6794.9L1390.65,6814.71L1281.5,6960.25L1281.5,6509.73C1281.5,6471.56 1312.49,6440.57 1350.65,6440.57L1684.78,6440.57L1688.34,6440.66Z" style="fill:white;"/>
                </g>
                <g transform="matrix(1,0,0,1,0,-2696.37)">
                    <path d="M2078.21,3906.88L1770.6,3906.88L1770.6,3798.88C1770.6,3752.99 1734.51,3715.47 1689.18,3713.16L1688.76,3713.15L1685.2,3713.06C1685.06,3713.05 1684.92,3713.05 1684.78,3713.05L1635.83,3713.05L1635.83,3621.71C1635.83,3583.54 1666.82,3552.55 1704.99,3552.55L2039.11,3552.55L2042.67,3552.64C2079.19,3554.5 2108.27,3584.74 2108.27,3621.71L2108.27,4072.24L1999.11,3926.69L2078.21,3906.88Z" style="fill:white;"/>
                </g>
                <g transform="matrix(330.662,0,0,330.662,1768.05,1145.25)">
                    <path d="M0.068,-0.067C0.068,-0.025 0.1,0.007 0.142,0.007C0.185,0.007 0.217,-0.025 0.217,-0.067L0.217,-0.276L0.281,-0.276L0.424,-0.032C0.435,-0.013 0.46,0.007 0.488,0.007C0.529,0.007 0.563,-0.022 0.563,-0.065C0.563,-0.08 0.554,-0.099 0.547,-0.11L0.406,-0.344L0.531,-0.57C0.538,-0.582 0.544,-0.6 0.544,-0.615C0.544,-0.658 0.512,-0.688 0.471,-0.688C0.444,-0.688 0.417,-0.669 0.407,-0.649L0.279,-0.403L0.217,-0.403L0.217,-0.614C0.217,-0.656 0.185,-0.688 0.142,-0.688C0.1,-0.688 0.068,-0.656 0.068,-0.614L0.068,-0.067Z" style="fill:rgb(226,0,255);fill-rule:nonzero;"/>
                </g>
                <g transform="matrix(219.129,0,0,219.129,1406.33,1277.27)">
                    <path d="M0.601,-0.639C0.604,-0.614 0.597,-0.597 0.582,-0.589C0.566,-0.58 0.547,-0.584 0.525,-0.599C0.507,-0.611 0.488,-0.625 0.469,-0.642C0.449,-0.658 0.43,-0.676 0.412,-0.696C0.383,-0.726 0.393,-0.74 0.44,-0.738C0.472,-0.737 0.498,-0.734 0.518,-0.73C0.538,-0.726 0.554,-0.72 0.566,-0.713C0.577,-0.705 0.586,-0.695 0.591,-0.683C0.596,-0.671 0.599,-0.656 0.601,-0.639ZM0.893,-0.585C0.909,-0.576 0.92,-0.567 0.926,-0.558C0.932,-0.549 0.933,-0.541 0.929,-0.535C0.924,-0.528 0.914,-0.523 0.899,-0.52C0.883,-0.516 0.861,-0.515 0.833,-0.517C0.814,-0.518 0.795,-0.519 0.777,-0.52C0.759,-0.521 0.74,-0.521 0.72,-0.521C0.699,-0.52 0.677,-0.519 0.652,-0.518C0.627,-0.517 0.599,-0.515 0.566,-0.512C0.48,-0.505 0.409,-0.497 0.354,-0.49C0.299,-0.483 0.258,-0.475 0.232,-0.468C0.218,-0.464 0.206,-0.461 0.197,-0.46C0.188,-0.458 0.179,-0.457 0.172,-0.458C0.164,-0.459 0.157,-0.46 0.15,-0.464C0.142,-0.467 0.134,-0.471 0.125,-0.476C0.097,-0.493 0.084,-0.506 0.086,-0.515C0.087,-0.524 0.101,-0.528 0.127,-0.528C0.14,-0.528 0.161,-0.529 0.19,-0.532C0.219,-0.534 0.252,-0.537 0.289,-0.541C0.326,-0.544 0.365,-0.548 0.407,-0.553C0.448,-0.557 0.489,-0.562 0.528,-0.567C0.567,-0.572 0.604,-0.577 0.637,-0.582C0.67,-0.587 0.697,-0.591 0.718,-0.595C0.745,-0.6 0.768,-0.604 0.785,-0.607C0.802,-0.61 0.816,-0.611 0.828,-0.61C0.839,-0.608 0.85,-0.606 0.859,-0.602C0.868,-0.598 0.88,-0.592 0.893,-0.585ZM0.654,-0.433C0.675,-0.423 0.684,-0.413 0.68,-0.402C0.676,-0.391 0.657,-0.384 0.622,-0.38C0.608,-0.379 0.593,-0.377 0.576,-0.375C0.559,-0.373 0.542,-0.371 0.525,-0.369C0.507,-0.366 0.49,-0.364 0.474,-0.362C0.457,-0.359 0.443,-0.357 0.43,-0.355C0.415,-0.352 0.403,-0.352 0.392,-0.353C0.381,-0.354 0.368,-0.359 0.353,-0.366C0.327,-0.377 0.316,-0.387 0.319,-0.396C0.322,-0.404 0.339,-0.409 0.37,-0.41C0.405,-0.412 0.437,-0.415 0.464,-0.42C0.491,-0.424 0.52,-0.431 0.55,-0.44C0.561,-0.443 0.57,-0.446 0.579,-0.448C0.588,-0.449 0.596,-0.45 0.604,-0.449C0.611,-0.448 0.619,-0.447 0.627,-0.444C0.635,-0.441 0.644,-0.438 0.654,-0.433ZM0.644,-0.309C0.666,-0.297 0.675,-0.285 0.672,-0.274C0.669,-0.263 0.647,-0.255 0.608,-0.252C0.582,-0.25 0.554,-0.247 0.523,-0.244C0.492,-0.24 0.456,-0.235 0.416,-0.229C0.401,-0.226 0.388,-0.226 0.377,-0.228C0.366,-0.229 0.352,-0.234 0.337,-0.242C0.296,-0.263 0.3,-0.276 0.351,-0.279C0.365,-0.28 0.381,-0.281 0.398,-0.283C0.415,-0.285 0.431,-0.288 0.448,-0.291C0.464,-0.294 0.479,-0.297 0.493,-0.3C0.507,-0.303 0.518,-0.306 0.526,-0.309C0.546,-0.317 0.567,-0.321 0.589,-0.321C0.611,-0.321 0.629,-0.317 0.644,-0.309ZM0.744,-0.089C0.727,-0.081 0.712,-0.071 0.701,-0.061C0.69,-0.049 0.68,-0.035 0.671,-0.017C0.68,-0.009 0.686,-0.001 0.69,0.008C0.694,0.016 0.695,0.023 0.694,0.03C0.693,0.037 0.688,0.042 0.68,0.047C0.672,0.051 0.661,0.053 0.646,0.053C0.608,0.054 0.567,0.055 0.524,0.057C0.48,0.059 0.438,0.062 0.398,0.065C0.395,0.085 0.391,0.1 0.385,0.111C0.379,0.121 0.372,0.126 0.365,0.125C0.358,0.124 0.35,0.118 0.343,0.107C0.336,0.095 0.33,0.077 0.325,0.054C0.315,0.005 0.306,-0.033 0.297,-0.06C0.288,-0.086 0.279,-0.106 0.268,-0.12C0.251,-0.141 0.249,-0.156 0.263,-0.164C0.277,-0.172 0.308,-0.169 0.356,-0.156C0.381,-0.157 0.405,-0.158 0.429,-0.16C0.453,-0.162 0.476,-0.165 0.498,-0.168C0.519,-0.171 0.539,-0.175 0.557,-0.18C0.574,-0.184 0.589,-0.189 0.601,-0.194C0.61,-0.198 0.618,-0.201 0.626,-0.202C0.633,-0.203 0.641,-0.203 0.649,-0.202C0.657,-0.201 0.666,-0.198 0.675,-0.193C0.684,-0.188 0.696,-0.182 0.709,-0.173C0.728,-0.161 0.742,-0.151 0.752,-0.142C0.762,-0.133 0.768,-0.126 0.77,-0.12C0.772,-0.113 0.771,-0.108 0.766,-0.103C0.761,-0.098 0.754,-0.094 0.744,-0.089ZM0.604,-0.106C0.605,-0.113 0.604,-0.118 0.6,-0.12C0.595,-0.122 0.587,-0.122 0.575,-0.121C0.551,-0.12 0.522,-0.117 0.489,-0.114C0.456,-0.111 0.421,-0.107 0.385,-0.102C0.388,-0.083 0.391,-0.064 0.393,-0.047C0.395,-0.029 0.397,-0.012 0.398,0.003C0.442,0 0.479,-0.003 0.509,-0.006C0.539,-0.009 0.561,-0.012 0.575,-0.015C0.578,-0.016 0.58,-0.017 0.582,-0.02C0.584,-0.022 0.586,-0.026 0.589,-0.033C0.591,-0.039 0.593,-0.048 0.596,-0.06C0.598,-0.071 0.601,-0.087 0.604,-0.106Z" style="fill:rgb(96,0,196);fill-rule:nonzero;"/>
                </g>
            </g>
        </g>
    </g>
</svg>
